<svg width="34" height="34" viewBox="0 0 34 34" fill="none" xmlns="http://www.w3.org/2000/svg">
<path d="M8.66669 8.6665H10.75V12.8332H8.66669V8.6665ZM8.66669 14.9165H10.75V19.0832H8.66669V14.9165ZM14.9167 8.6665H17V12.8332H14.9167V8.6665ZM14.9167 14.9165H17V19.0832H14.9167V14.9165ZM8.66669 21.1665H10.75V25.3332H8.66669V21.1665ZM14.9167 21.1665H17V25.3332H14.9167V21.1665Z" fill="white"/>
<path d="M31.5834 14.9165C31.5834 14.364 31.3639 13.8341 30.9732 13.4434C30.5825 13.0527 30.0526 12.8332 29.5 12.8332H23.25V4.49984C23.25 3.9473 23.0305 3.4174 22.6398 3.0267C22.2491 2.636 21.7192 2.4165 21.1667 2.4165H4.50002C3.94749 2.4165 3.41758 2.636 3.02688 3.0267C2.63618 3.4174 2.41669 3.9473 2.41669 4.49984V31.5832H31.5834V14.9165ZM4.50002 4.49984H21.1667V29.4998H4.50002V4.49984ZM23.25 29.4998V14.9165H29.5V29.4998H23.25Z" fill="white"/>
</svg>
