<svg width="37" height="37" viewBox="0 0 37 37" fill="none" xmlns="http://www.w3.org/2000/svg">
<path fill-rule="evenodd" clip-rule="evenodd" d="M9.75062 15.1675C10.7232 15.1675 11.6559 14.7812 12.3436 14.0935C13.0313 13.4058 13.4176 12.473 13.4176 11.5005C13.4176 10.528 13.0313 9.59524 12.3436 8.90754C11.6559 8.21984 10.7232 7.8335 9.75062 7.8335C8.77807 7.8335 7.84536 8.21984 7.15766 8.90754C6.46997 9.59524 6.08362 10.528 6.08362 11.5005C6.08362 12.473 6.46997 13.4058 7.15766 14.0935C7.84536 14.7812 8.77807 15.1675 9.75062 15.1675ZM9.75062 17.001C10.473 17.001 11.1882 16.8587 11.8556 16.5823C12.5229 16.3059 13.1293 15.9007 13.6401 15.3899C14.1508 14.8792 14.556 14.2728 14.8324 13.6055C15.1088 12.9381 15.2511 12.2228 15.2511 11.5005C15.2511 10.7782 15.1088 10.0629 14.8324 9.39555C14.556 8.7282 14.1508 8.12183 13.6401 7.61106C13.1293 7.10029 12.5229 6.69513 11.8556 6.4187C11.1882 6.14228 10.473 6 9.75062 6C8.2918 6 6.89273 6.57952 5.86118 7.61106C4.82964 8.6426 4.25012 10.0417 4.25012 11.5005C4.25012 12.9593 4.82964 14.3584 5.86118 15.3899C6.89273 16.4215 8.2918 17.001 9.75062 17.001Z" fill="#4D4D4D"/>
<path fill-rule="evenodd" clip-rule="evenodd" d="M7.64943 14.9769C7.73481 15.062 7.80254 15.1632 7.84876 15.2746C7.89497 15.3859 7.91876 15.5053 7.91876 15.6259C7.91876 15.7465 7.89497 15.8659 7.84876 15.9773C7.80254 16.0886 7.73481 16.1898 7.64943 16.275L7.02971 16.8929C5.83708 18.0858 5.16703 19.7036 5.16687 21.3904V24.7934C5.16687 25.0365 5.07029 25.2697 4.89836 25.4417C4.72644 25.6136 4.49326 25.7102 4.25012 25.7102C4.00699 25.7102 3.77381 25.6136 3.60188 25.4417C3.42996 25.2697 3.33337 25.0365 3.33337 24.7934V21.3904C3.33363 19.2173 4.19693 17.1333 5.73343 15.5966L6.35132 14.9769C6.43647 14.8915 6.53764 14.8237 6.64901 14.7775C6.76039 14.7313 6.87979 14.7075 7.00038 14.7075C7.12096 14.7075 7.24036 14.7313 7.35174 14.7775C7.46311 14.8237 7.56428 14.8915 7.64943 14.9769ZM29.2701 14.4268C29.1847 14.512 29.117 14.6131 29.0707 14.7245C29.0245 14.8359 29.0007 14.9553 29.0007 15.0759C29.0007 15.1964 29.0245 15.3158 29.0707 15.4272C29.117 15.5386 29.1847 15.6398 29.2701 15.7249L29.8898 16.3428C30.4804 16.9334 30.9489 17.6346 31.2685 18.4063C31.5882 19.178 31.7527 20.0051 31.7526 20.8404V24.7934C31.7526 25.0365 31.8492 25.2697 32.0211 25.4417C32.1931 25.6136 32.4262 25.7102 32.6694 25.7102C32.9125 25.7102 33.1457 25.6136 33.3176 25.4417C33.4895 25.2697 33.5861 25.0365 33.5861 24.7934V20.8404C33.5859 18.6673 32.7226 16.5832 31.1861 15.0465L30.5682 14.4268C30.483 14.3414 30.3819 14.2737 30.2705 14.2275C30.1591 14.1813 30.0397 14.1575 29.9191 14.1575C29.7985 14.1575 29.6791 14.1813 29.5678 14.2275C29.4564 14.2737 29.3552 14.3414 29.2701 14.4268Z" fill="#4D4D4D"/>
<path fill-rule="evenodd" clip-rule="evenodd" d="M26.2521 15.1675C25.2796 15.1675 24.3469 14.7812 23.6592 14.0935C22.9715 13.4058 22.5851 12.473 22.5851 11.5005C22.5851 10.528 22.9715 9.59524 23.6592 8.90754C24.3469 8.21984 25.2796 7.8335 26.2521 7.8335C27.2247 7.8335 28.1574 8.21984 28.8451 8.90754C29.5328 9.59524 29.9191 10.528 29.9191 11.5005C29.9191 12.473 29.5328 13.4058 28.8451 14.0935C28.1574 14.7812 27.2247 15.1675 26.2521 15.1675ZM26.2521 17.001C25.5298 17.001 24.8145 16.8587 24.1472 16.5823C23.4798 16.3059 22.8735 15.9007 22.3627 15.3899C21.8519 14.8792 21.4468 14.2728 21.1703 13.6055C20.8939 12.9381 20.7516 12.2228 20.7516 11.5005C20.7516 10.7782 20.8939 10.0629 21.1703 9.39555C21.4468 8.7282 21.8519 8.12183 22.3627 7.61106C22.8735 7.10029 23.4798 6.69513 24.1472 6.4187C24.8145 6.14228 25.5298 6 26.2521 6C27.711 6 29.11 6.57952 30.1416 7.61106C31.1731 8.6426 31.7526 10.0417 31.7526 11.5005C31.7526 12.9593 31.1731 14.3584 30.1416 15.3899C29.11 16.4215 27.711 17.001 26.2521 17.001ZM18.0014 22.9599C16.7857 22.9599 15.6198 23.4428 14.7602 24.3024C13.9006 25.162 13.4176 26.3279 13.4176 27.5436V29.9272C13.4176 30.1703 13.3211 30.4035 13.1491 30.5754C12.9772 30.7473 12.744 30.8439 12.5009 30.8439C12.2577 30.8439 12.0246 30.7473 11.8526 30.5754C11.6807 30.4035 11.5841 30.1703 11.5841 29.9272V27.5436C11.5841 25.8417 12.2602 24.2094 13.4637 23.0059C14.6672 21.8025 16.2994 21.1264 18.0014 21.1264C19.7033 21.1264 21.3356 21.8025 22.5391 23.0059C23.7425 24.2094 24.4186 25.8417 24.4186 27.5436V29.9272C24.4186 30.1703 24.322 30.4035 24.1501 30.5754C23.9782 30.7473 23.745 30.8439 23.5019 30.8439C23.2587 30.8439 23.0256 30.7473 22.8536 30.5754C22.6817 30.4035 22.5851 30.1703 22.5851 29.9272V27.5436C22.5851 26.9417 22.4666 26.3456 22.2362 25.7895C22.0059 25.2334 21.6682 24.7281 21.2426 24.3024C20.8169 23.8768 20.3116 23.5392 19.7555 23.3088C19.1994 23.0784 18.6033 22.9599 18.0014 22.9599Z" fill="#4D4D4D"/>
<path fill-rule="evenodd" clip-rule="evenodd" d="M18.0014 20.2096C18.9739 20.2096 19.9067 19.8233 20.5943 19.1356C21.282 18.4479 21.6684 17.5152 21.6684 16.5426C21.6684 15.5701 21.282 14.6374 20.5943 13.9497C19.9067 13.262 18.9739 12.8756 18.0014 12.8756C17.0288 12.8756 16.0961 13.262 15.4084 13.9497C14.7207 14.6374 14.3344 15.5701 14.3344 16.5426C14.3344 17.5152 14.7207 18.4479 15.4084 19.1356C16.0961 19.8233 17.0288 20.2096 18.0014 20.2096ZM18.0014 22.0431C19.4602 22.0431 20.8593 21.4636 21.8908 20.4321C22.9224 19.4005 23.5019 18.0014 23.5019 16.5426C23.5019 15.0838 22.9224 13.6847 21.8908 12.6532C20.8593 11.6216 19.4602 11.0421 18.0014 11.0421C16.5426 11.0421 15.1435 11.6216 14.1119 12.6532C13.0804 13.6847 12.5009 15.0838 12.5009 16.5426C12.5009 18.0014 13.0804 19.4005 14.1119 20.4321C15.1435 21.4636 16.5426 22.0431 18.0014 22.0431Z" fill="#4D4D4D"/>
</svg>
