<svg width="34" height="34" viewBox="0 0 34 34" fill="none" xmlns="http://www.w3.org/2000/svg">
<path d="M5 17.5H6.38889M17.5 5V6.38889M28.6111 17.5H30M8.61111 8.61111L9.58333 9.58333M26.3889 8.61111L25.4167 9.58333M14.3056 24.4444H20.6944M13.3333 23.0556C12.1673 22.181 11.306 20.9618 10.8714 19.5706C10.4368 18.1794 10.451 16.6867 10.9119 15.304C11.3728 13.9213 12.2571 12.7186 13.4395 11.8664C14.6219 11.0141 16.0425 10.5556 17.5 10.5556C18.9575 10.5556 20.3781 11.0141 21.5605 11.8664C22.7429 12.7186 23.6272 13.9213 24.0881 15.304C24.549 16.6867 24.5631 18.1794 24.1286 19.5706C23.694 20.9618 22.8327 22.181 21.6667 23.0556C21.1244 23.5923 20.7161 24.2492 20.4748 24.9731C20.2335 25.6969 20.166 26.4674 20.2778 27.2222C20.2778 27.9589 19.9851 28.6655 19.4642 29.1864C18.9433 29.7073 18.2367 30 17.5 30C16.7633 30 16.0567 29.7073 15.5358 29.1864C15.0149 28.6655 14.7222 27.9589 14.7222 27.2222C14.834 26.4674 14.7665 25.6969 14.5252 24.9731C14.2839 24.2492 13.8756 23.5923 13.3333 23.0556Z" stroke="#4D4D4D" stroke-width="2" stroke-linecap="round" stroke-linejoin="round"/>
</svg>
