<svg width="33" height="32" viewBox="0 0 33 32" fill="none" xmlns="http://www.w3.org/2000/svg">
<g clip-path="url(#clip0_1237_489)">
<path d="M22.823 9.8012L22.8322 9.7999C23.0432 9.77018 23.2564 9.75544 23.4744 9.75543L22.823 9.8012ZM22.823 9.8012L22.8138 9.80284M22.823 9.8012L22.8138 9.80284M22.8138 9.80284C22.7491 9.81443 22.6827 9.81286 22.6186 9.79824C22.5545 9.78361 22.494 9.75623 22.4407 9.71771C22.3874 9.6792 22.3424 9.63034 22.3084 9.57407C22.2744 9.51779 22.2521 9.45525 22.2428 9.39016C22.2335 9.32508 22.2374 9.25879 22.2543 9.19524L21.7711 9.06688M22.8138 9.80284L21.7711 9.06688M21.7711 9.06688L22.2543 9.19524C22.2712 9.13169 22.3007 9.0722 22.3411 9.02031C22.3814 8.96842 22.4319 8.92519 22.4893 8.8932C22.5467 8.86121 22.61 8.84112 22.6754 8.83412L22.6846 8.83314M21.7711 9.06688L22.6846 8.83314M22.6846 8.83314L22.6937 8.83181M22.6846 8.83314L22.6937 8.83181M22.6937 8.83181C23.8963 8.65795 25.1224 8.88888 26.1793 9.48825C27.2362 10.0876 28.0638 11.0214 28.5319 12.1426C28.9999 13.2639 29.0818 14.5089 28.7648 15.6818C28.4477 16.8548 27.7496 17.8889 26.7804 18.6216L26.1061 19.1314M22.6937 8.83181L26.1061 19.1314M26.1061 19.1314L26.8776 19.4768M26.1061 19.1314L26.8776 19.4768M26.8776 19.4768C28.3443 20.1336 29.5897 21.2008 30.4634 22.5496C31.3372 23.8984 31.8019 25.4712 31.8016 27.0783V27.0783M26.8776 19.4768L31.8016 27.0783M31.8016 27.0783C31.8016 27.2082 31.7501 27.3327 31.6582 27.4245C31.5664 27.5163 31.4419 27.5679 31.3121 27.5679C31.1822 27.5679 31.0577 27.5164 30.9659 27.4245C30.8741 27.3327 30.8225 27.2082 30.8225 27.0783V27.0783M31.8016 27.0783L30.8225 27.0783M30.8225 27.0783C30.8223 25.4986 30.3133 23.9609 29.3708 22.6931C28.4284 21.4252 27.1026 20.4947 25.5899 20.0393L25.5893 20.0391M30.8225 27.0783L25.5893 20.0391M25.5893 20.0391L25.2412 19.9348M25.5893 20.0391L25.2412 19.9348M25.2412 19.9348V18.4019L25.5081 18.2658C25.5084 18.2657 25.5087 18.2656 25.509 18.2654C26.4108 17.8084 27.1323 17.0609 27.5571 16.1434C27.9821 15.2257 28.0854 14.1916 27.8504 13.2079C27.6153 12.2243 27.0556 11.3486 26.2616 10.7222C25.4677 10.0958 24.4858 9.75519 23.4746 9.75543L25.2412 19.9348ZM5.77942 10.2557V10.2555C5.77966 9.09078 6.08099 7.94586 6.65416 6.93189C7.22733 5.91792 8.05288 5.06934 9.05069 4.46848C10.0485 3.86762 11.1847 3.5349 12.349 3.5026C13.5133 3.4703 14.6662 3.73952 15.6958 4.28414C16.7254 4.82876 17.5967 5.63028 18.2252 6.61091C18.8537 7.59155 19.218 8.718 19.2828 9.88095C19.3477 11.0439 19.1107 12.2039 18.5951 13.2483C18.0795 14.2927 17.3026 15.186 16.3399 15.8417L15.5358 16.3893L16.4492 16.7244C18.5821 17.5067 20.432 18.9093 21.761 20.7519C23.0875 22.591 23.8344 24.7845 23.9059 27.0509C23.9022 27.1743 23.8521 27.2919 23.7655 27.3801C23.6768 27.4704 23.5565 27.523 23.43 27.5268C23.3034 27.5306 23.1803 27.4853 23.0863 27.4005C22.9944 27.3175 22.9373 27.2029 22.9263 27.0798C22.8407 24.3834 21.7103 21.8257 19.7735 19.9473C17.8338 18.066 15.2379 17.0138 12.5357 17.0138C9.83355 17.0138 7.23757 18.066 5.29789 19.9473C3.35966 21.8272 2.22896 24.3874 2.14491 27.086C2.13737 27.2123 2.08124 27.3308 1.98819 27.4167C1.89411 27.5035 1.76978 27.55 1.64183 27.5462C1.51389 27.5425 1.3925 27.4888 1.30367 27.3966C1.21598 27.3056 1.16691 27.1842 1.16662 27.058C1.23679 24.7893 1.98367 22.5934 3.31139 20.7524C4.64038 18.9096 6.49047 17.5067 8.62354 16.7244L9.53738 16.3892L8.73266 15.8416C7.82216 15.222 7.07704 14.3891 6.56229 13.4154C6.04753 12.4418 5.77877 11.3571 5.77942 10.2557ZM12.5364 4.47765C11.004 4.47765 9.5344 5.08638 8.45086 6.16993C7.36732 7.25347 6.75859 8.72307 6.75859 10.2554C6.75859 11.7878 7.36732 13.2574 8.45086 14.3409C9.5344 15.4245 11.004 16.0332 12.5364 16.0332C14.0687 16.0332 15.5383 15.4245 16.6219 14.3409C17.7054 13.2574 18.3141 11.7878 18.3141 10.2554C18.3141 8.72307 17.7054 7.25347 16.6219 6.16993C15.5383 5.08638 14.0687 4.47765 12.5364 4.47765Z" fill="#4D4D4D" stroke="#4D4D4D"/>
</g>
<defs>
<clipPath id="clip0_1237_489">
<rect width="31.6667" height="31.6667" fill="white" transform="translate(0.666615 0.00012207)"/>
</clipPath>
</defs>
</svg>
